<?xml version="1.0" encoding="utf-8"?>
<!-- Generator: Adobe Illustrator 27.8.0, SVG Export Plug-In . SVG Version: 6.00 Build 0)  -->
<svg version="1.1" id="Calque_1" xmlns="http://www.w3.org/2000/svg" xmlns:xlink="http://www.w3.org/1999/xlink" x="0px" y="0px"
	 viewBox="0 0 36 36" style="enable-background:new 0 0 36 36;" xml:space="preserve">
<style type="text/css">
	.st0{clip-path:url(#SVGID_00000138573397747752405880000015713532436651823000_);}
	.st1{fill:#FFFFFF;}
	.st2{fill-rule:evenodd;clip-rule:evenodd;fill:#452C1E;}
</style>
<g>
	<defs>
		<rect id="SVGID_1_" width="36" height="36"/>
	</defs>
	<clipPath id="SVGID_00000014624011956346340060000000498332279546660795_">
		<use xlink:href="#SVGID_1_"  style="overflow:visible;"/>
	</clipPath>
	<g style="clip-path:url(#SVGID_00000014624011956346340060000000498332279546660795_);">
		<circle class="st1" cx="18" cy="18" r="18"/>
		<path class="st2" d="M20.5,13c0.2,0,0.4,0.2,0.4,0.4v0.8c0,0.2-0.2,0.4-0.4,0.4s-0.4-0.2-0.4-0.4v-0.8C20.1,13.2,20.3,13,20.5,13z
			"/>
		<path class="st2" d="M15.5,13c0.2,0,0.4,0.2,0.4,0.4v0.8c0,0.2-0.2,0.4-0.4,0.4s-0.4-0.2-0.4-0.4v-0.8C15.1,13.2,15.3,13,15.5,13z
			"/>
		<path class="st2" d="M21.7,14.2c0,0.7-0.5,1.3-1.3,1.3c-0.7,0-1.2-0.5-1.2-1.3h-2.5v0.1c0,0.7-0.5,1.3-1.3,1.3
			c-0.7,0-1.2-0.6-1.2-1.3H13v7.5h10v-7.5H21.7z M17.9,19.5l-0.3,0.3l-0.3-0.3L16,17.9l0.6-0.5l1.1,1.3l2.1-1.8l0.6,0.6L17.9,19.5z"
			/>
	</g>
</g>
</svg>
