<?xml version="1.0" encoding="utf-8"?>
<!-- Generator: Adobe Illustrator 27.8.0, SVG Export Plug-In . SVG Version: 6.00 Build 0)  -->
<svg version="1.1" id="Calque_1" xmlns="http://www.w3.org/2000/svg" xmlns:xlink="http://www.w3.org/1999/xlink" x="0px" y="0px"
	 viewBox="0 0 36 36" style="enable-background:new 0 0 36 36;" xml:space="preserve">
<style type="text/css">
	.st0{clip-path:url(#SVGID_00000068638585643067119490000007191788618454174082_);}
	.st1{fill:#FFFFFF;}
	.st2{fill-rule:evenodd;clip-rule:evenodd;fill:#452C1E;}
</style>
<g>
	<defs>
		<rect id="SVGID_1_" width="36" height="36"/>
	</defs>
	<clipPath id="SVGID_00000078725124775747746210000017387466566218558094_">
		<use xlink:href="#SVGID_1_"  style="overflow:visible;"/>
	</clipPath>
	<g style="clip-path:url(#SVGID_00000078725124775747746210000017387466566218558094_);">
		<circle class="st1" cx="18" cy="18" r="18"/>
		<path class="st2" d="M16.1,17.2c0-1.1,0.8-2,1.9-2c1,0,1.9,0.9,1.9,2c0,1.1-0.8,2-1.9,2C16.9,19.2,16.1,18.3,16.1,17.2z M14,17.2
			c0,0.9,0.6,2,1.3,3.1C16.5,22.2,18,24,18,24s1.5-1.9,2.7-3.6c0.7-1.1,1.3-2.3,1.3-3.1c0-2.3-1.8-4.2-4-4.2
			C15.8,13,14,14.9,14,17.2z"/>
	</g>
</g>
</svg>
