<?xml version="1.0" encoding="utf-8"?>
<!-- Generator: Adobe Illustrator 25.4.1, SVG Export Plug-In . SVG Version: 6.00 Build 0)  -->
<svg version="1.1" id="Calque_1" xmlns="http://www.w3.org/2000/svg" xmlns:xlink="http://www.w3.org/1999/xlink" x="0px" y="0px"
	 viewBox="0 0 21 21" style="enable-background:new 0 0 21 21;" xml:space="preserve">
<style type="text/css">
	.st0{opacity:0.5;fill:url(#SVGID_1_);enable-background:new    ;}
	.st1{fill:#FFFFFF;}
	.st2{fill:#212121;}
	.st3{fill:none;}
</style>
<g>
	
		<radialGradient id="SVGID_1_" cx="-4758.6548" cy="459.8758" r="4.687088e-02" gradientTransform="matrix(154.8199 0 0 31.547 736745.1875 -14488.3643)" gradientUnits="userSpaceOnUse">
		<stop  offset="0" style="stop-color:#010100;stop-opacity:0.5"/>
		<stop  offset="1" style="stop-color:#010100;stop-opacity:0"/>
	</radialGradient>
	<ellipse class="st0" cx="10.8" cy="19.4" rx="7.2" ry="1.5"/>
	<path class="st1" d="M10.6,16c-4,0-7.2-3.2-7.2-7.2s3.2-7.3,7.2-7.3s7.2,3.2,7.2,7.2S14.5,16,10.6,16z"/>
	<path class="st2" d="M7.2,7.3L7.2,7.3L8.7,12l0,0c0.1,0.5,0.9,0.9,1.8,0.9c0.9,0,1.7-0.4,1.8-0.9l0,0l1.4-4.8h0.1
		c0.3,0,0.5-0.2,0.5-0.5s-0.2-0.5-0.5-0.5s-0.5,0.2-0.5,0.5c0,0.2,0.1,0.3,0.3,0.5L12,10.7L12.3,6l0,0c0.3,0,0.5-0.2,0.5-0.5
		S12.6,5,12.3,5s-0.5,0.2-0.5,0.5C11.9,5.8,12,6,12.2,6l-1,4.6l-0.5-5c0.2,0,0.4-0.2,0.4-0.5s-0.2-0.5-0.5-0.5s-0.5,0.2-0.5,0.5
		c0,0.2,0.2,0.5,0.4,0.5l-0.5,5L8.9,6c0.3,0,0.4-0.2,0.4-0.4c0-0.3-0.2-0.5-0.5-0.5S8.3,5.3,8.3,5.6C8.3,5.8,8.6,6,8.8,6l0,0L9,10.7
		L7.4,7.3C7.6,7.2,7.7,7,7.7,6.8c0-0.3-0.2-0.5-0.5-0.5S6.7,6.5,6.7,6.8C6.7,7.1,6.9,7.3,7.2,7.3z M10.5,11.7c0.8,0,1.5,0.2,1.5,0.5
		s-0.7,0.5-1.5,0.5S9,12.4,9,12.2C9,11.9,9.7,11.7,10.5,11.7z"/>
	<g>
		<path class="st3" d="M10.6,1.5c-4,0-7.2,3.3-7.2,7.3S6.6,16,10.6,16s7.2-3.2,7.2-7.2S14.5,1.5,10.6,1.5z"/>
		<path class="st2" d="M10.6,0.1C5.8,0.1,2,4,2,8.8c0,4.3,3.2,7.9,7.3,8.5l1.5,2.3l1.4-2.3c4.1-0.7,7.1-4.3,7.1-8.5
			C19.2,4,15.3,0.1,10.6,0.1z M10.6,16c-4,0-7.2-3.2-7.2-7.2s3.2-7.3,7.2-7.3s7.2,3.2,7.2,7.2S14.5,16,10.6,16z"/>
	</g>
</g>
</svg>
