<?xml version="1.0" encoding="utf-8"?>
<!-- Generator: Adobe Illustrator 27.8.0, SVG Export Plug-In . SVG Version: 6.00 Build 0)  -->
<svg version="1.1" id="Calque_1" xmlns="http://www.w3.org/2000/svg" xmlns:xlink="http://www.w3.org/1999/xlink" x="0px" y="0px"
	 viewBox="0 0 36 36" style="enable-background:new 0 0 36 36;" xml:space="preserve">
<style type="text/css">
	.st0{clip-path:url(#SVGID_00000024686363713457059800000015865217870237922737_);}
	.st1{fill:#FFFFFF;}
	.st2{fill:#127749;}
</style>
<g>
	<defs>
		<rect id="SVGID_1_" width="36" height="36"/>
	</defs>
	<clipPath id="SVGID_00000089536645812066709270000009702433402402729379_">
		<use xlink:href="#SVGID_1_"  style="overflow:visible;"/>
	</clipPath>
	<g style="clip-path:url(#SVGID_00000089536645812066709270000009702433402402729379_);">
		<circle class="st1" cx="18" cy="18" r="18"/>
		<path class="st2" d="M16,16.3L16,16.3c0.3,1.3,1,2.7,2.5,4.1l0.1-0.1c0.6-0.5,1.4-0.6,1.8-0.2l0.8,0.7c0.4,0.4,0.4,1-0.1,1.5
			c-0.3,0.3-2.3,2.4-5.3-2.4c-3.2-5-1.3-6.4-0.4-6.8c0,0,0,0,0,0c0,0,0,0,0.1,0c0,0,0,0,0,0c0.1,0,0.2-0.1,0.2-0.1s0,0,0,0
			c0.5-0.1,1,0.2,1.2,0.6C16.8,13.6,17.6,15.9,16,16.3z"/>
	</g>
</g>
</svg>
