<?xml version="1.0" encoding="UTF-8"?>
<svg id="Capa_1" xmlns="http://www.w3.org/2000/svg" version="1.1" viewBox="0 0 46 46">
  <!-- Generator: Adobe Illustrator 30.0.0, SVG Export Plug-In . SVG Version: 2.1.1 Build 123)  -->
  <defs>
    <style>
      .st0 {
        fill: #452c1e;
      }
    </style>
  </defs>
  <g id="whatsapp">
    <path id="Shape" class="st0" d="M34.7,28.1c0,.7,0,1.3-.3,1.7-1,1.7-2.6,2.6-4.3,3-1.7.3-3,0-4.6-.7-1.3-.7-2.6-1.3-4-2-2.3-1.7-4.6-3.6-6.3-6-.3-.7-1-1.3-1.3-2.3-.7-1-1-2.3-1.3-3.3-.3-.3-.3-1-.3-1.3,0-1.7.7-3.3,2-4.3.7-.7,2-1,3-.7,1,.7,1.3,2,1.7,3,.3.7.7,1.7.7,2.6s-.7,1.7-1.3,2c-.3.7-.3,1,0,1.3,1.7,3,4.3,5.3,7.3,6.3.7.3,1,.3,1,0,.7-.7,1.3-2,2-2.3,1.3-.7,2.3,0,3.6.7,1,.7,2.3,1.3,2.6,2.3ZM46,22.8c0,12.6-10.3,22.8-22.8,22.8s-7.6-1-10.9-2.6L0,46l3.3-12.2c-2-3.3-3-7.3-3-10.9C.3,10.3,10.6,0,23.2,0s22.8,10.3,22.8,22.8ZM41.7,22.5c0-10.3-8.3-18.5-18.5-18.5S4.6,12.2,4.6,22.5s1,6.6,2.6,9.6l.3.7-2,6.9,7.3-1.7.7.3c3.3,1.7,6.3,2.6,9.6,2.6,10.3,0,18.5-8.3,18.5-18.5Z"/>
  </g>
</svg>